<svg width="256" height="256" viewBox="0 0 256 256" fill="none" xmlns="http://www.w3.org/2000/svg">
<g clip-path="url(#clip0_1103_32)">
<path d="M196 0H60C26.8629 0 0 26.8629 0 60V196C0 229.137 26.8629 256 60 256H196C229.137 256 256 229.137 256 196V60C256 26.8629 229.137 0 196 0Z" fill="#030712"/>
<path d="M40.4996 113.234C40.0996 113.234 39.9996 113.034 40.1996 112.734L42.2996 110.034C42.4996 109.734 42.9996 109.534 43.3996 109.534H79.0996C79.4996 109.534 79.5996 109.834 79.3996 110.134L77.6996 112.734C77.4996 113.034 76.9996 113.334 76.6996 113.334L40.4996 113.234Z" fill="#00B4E0"/>
<path d="M25.4 122.434C25 122.434 24.9 122.234 25.1 121.934L27.2 119.234C27.4 118.934 27.9 118.734 28.3 118.734H73.9C74.3 118.734 74.5 119.034 74.4 119.334L73.6 121.734C73.5 122.134 73.1 122.334 72.7 122.334L25.4 122.434Z" fill="#00B4E0"/>
<path d="M49.6002 131.634C49.2002 131.634 49.1002 131.334 49.3002 131.034L50.7002 128.534C50.9002 128.234 51.3002 127.934 51.7002 127.934H71.7002C72.1002 127.934 72.3002 128.234 72.3002 128.634L72.1002 131.034C72.1002 131.434 71.7002 131.734 71.4002 131.734L49.6002 131.634Z" fill="#00B4E0"/>
<path d="M153.4 111.434C147.1 113.034 142.8 114.234 136.6 115.834C135.1 116.234 135 116.334 133.7 114.834C132.2 113.134 131.1 112.034 129 111.034C122.7 107.934 116.6 108.834 110.9 112.534C104.1 116.934 100.6 123.434 100.7 131.534C100.8 139.534 106.3 146.134 114.2 147.234C121 148.134 126.7 145.734 131.2 140.634C132.1 139.534 132.9 138.334 133.9 136.934C130.3 136.934 125.8 136.934 114.6 136.934C112.5 136.934 112 135.634 112.7 133.934C114 130.834 116.4 125.634 117.8 123.034C118.1 122.434 118.8 121.434 120.3 121.434C125.4 121.434 144.2 121.434 156.7 121.434C156.5 124.134 156.5 126.834 156.1 129.534C155 136.734 152.3 143.334 147.9 149.134C140.7 158.634 131.3 164.534 119.4 166.134C109.6 167.434 100.5 165.534 92.4997 159.534C85.0997 153.934 80.8997 146.534 79.7997 137.334C78.4997 126.434 81.6997 116.634 88.2997 108.034C95.3997 98.7343 104.8 92.8343 116.3 90.7343C125.7 89.0343 134.7 90.1343 142.8 95.6343C148.1 99.1343 151.9 103.934 154.4 109.734C155 110.634 154.6 111.134 153.4 111.434Z" fill="#00B4E0"/>
<path d="M186.5 166.734C177.4 166.534 169.1 163.934 162.1 157.934C156.2 152.834 152.5 146.334 151.3 138.634C149.5 127.334 152.6 117.334 159.4 108.434C166.7 98.8341 175.5 93.8341 187.4 91.7341C197.6 89.9341 207.2 90.9341 215.9 96.8341C223.8 102.234 228.7 109.534 230 119.134C231.7 132.634 227.8 143.634 218.5 153.034C211.9 159.734 203.8 163.934 194.5 165.834C191.8 166.334 189.1 166.434 186.5 166.734ZM210.3 126.334C210.2 125.034 210.2 124.034 210 123.034C208.2 113.134 199.1 107.534 189.6 109.734C180.3 111.834 174.3 117.734 172.1 127.134C170.3 134.934 174.1 142.834 181.3 146.034C186.8 148.434 192.3 148.134 197.6 145.434C205.5 141.334 209.8 134.934 210.3 126.334Z" fill="#00B4E0"/>
</g>
<defs>
<clipPath id="clip0_1103_32">
<rect width="256" height="256" fill="white"/>
</clipPath>
</defs>
</svg>
