<svg width="256" height="256" viewBox="0 0 256 256" fill="none" xmlns="http://www.w3.org/2000/svg">
<g clip-path="url(#clip0_1543_2)">
<path d="M196 0H60C26.8629 0 0 26.8629 0 60V196C0 229.137 26.8629 256 60 256H196C229.137 256 256 229.137 256 196V60C256 26.8629 229.137 0 196 0Z" fill="#F18808"/>
<mask id="mask0_1543_2" style="mask-type:alpha" maskUnits="userSpaceOnUse" x="0" y="0" width="256" height="256">
<path d="M196 0H60C26.8629 0 0 26.8629 0 60V196C0 229.137 26.8629 256 60 256H196C229.137 256 256 229.137 256 196V60C256 26.8629 229.137 0 196 0Z" fill="#030712"/>
</mask>
<g mask="url(#mask0_1543_2)">
<path d="M128.24 149.068L128.276 148.971C128.222 148.725 128.203 148.67 128.24 149.068Z" fill="#030712"/>
<path d="M127.143 206.681C126.411 205.122 124.188 201.063 123.071 199.762C120.647 196.926 120.081 196.713 119.368 193.132C118.128 186.897 114.847 175.59 110.981 167.787C108.984 163.76 105.664 160.377 102.624 157.456C99.9695 154.895 93.9884 150.584 92.9453 150.798C83.1761 152.747 80.1457 162.323 75.5506 169.91C73.0082 174.106 70.3143 177.675 68.311 182.139C66.4609 186.244 66.6251 190.789 63.4575 194.313C60.2086 197.932 58.0968 201.78 56.5051 206.456C56.2036 207.346 55.3455 216.686 54.4141 218.887L68.9331 217.865C82.4632 218.787 78.5555 223.969 99.6729 222.841L133.017 221.809C131.984 218.755 130.559 215.218 130.011 214.068C129.081 212.133 127.912 208.345 127.143 206.681Z" fill="#030712"/>
<path d="M169.413 137.67C166.85 139.519 161.84 143.967 150.944 145.648C146.053 146.404 141.479 146.466 136.458 146.216C134 146.098 131.683 145.972 129.218 145.94C127.767 145.929 122.898 145.774 123.138 146.24L122.596 147.592C122.681 148.036 122.858 149.148 122.907 149.417C123.107 150.509 123.162 151.378 123.204 152.382C123.279 154.447 123.033 156.599 123.138 158.682C123.357 163.004 124.962 166.943 125.164 171.303C125.386 176.157 127.788 181.294 130.112 185.258C130.994 186.768 132.337 186.94 132.922 188.799C133.608 190.929 132.959 193.188 133.292 195.458C134.6 204.259 137.136 213.459 141.101 221.403C141.13 221.47 141.16 221.541 141.195 221.602C146.092 220.779 150.998 219.019 157.36 218.079C169.026 216.349 185.25 217.24 195.671 216.265C222.041 213.787 236.353 227.075 260.036 221.629V26.2493C260.036 7.88782 245.149 -7 226.773 -7H29.265C10.8958 -7 -3.99805 7.88782 -3.99805 26.2493V98.7945C0.761339 97.0745 7.60694 86.9532 9.75217 84.4918C13.5051 80.1876 14.1862 74.6973 16.0555 71.2396C20.3125 63.3644 21.0446 57.9491 30.7212 57.9491C35.2318 57.9491 37.0229 58.9885 40.0741 63.0807C42.197 65.9262 45.8639 71.1838 47.58 74.6989C49.561 78.7544 52.7892 84.2415 54.2087 85.3494C55.2598 86.172 56.3029 86.789 57.2759 87.154C58.8453 87.7423 60.1436 86.663 61.1931 85.8277C62.5329 84.7612 63.1102 82.5884 64.3511 79.6902C66.1391 75.5087 68.0881 70.4983 69.1966 68.7495C71.1154 65.727 71.7693 62.1401 73.8412 60.4025C76.8972 57.8407 80.8846 57.6605 81.9819 57.4437C88.1209 56.2322 90.9121 60.4009 93.9362 63.0966C95.9156 64.8629 98.6206 68.4211 100.541 73.1892C102.042 76.9132 103.953 80.3581 104.752 82.5087C105.524 84.5842 107.43 87.9112 108.559 91.8998C109.584 95.5217 112.329 98.2972 113.372 100.019C113.372 100.019 114.969 104.489 124.678 108.575C126.783 109.461 131.038 110.902 133.578 111.825C137.796 113.357 141.883 113.158 147.085 112.535C150.795 112.535 152.805 107.165 154.491 102.866C155.488 100.325 156.443 93.0428 157.094 90.9752C157.724 88.9634 156.25 87.4075 157.505 85.6444C158.973 83.5863 159.845 83.4747 160.692 80.7917C162.512 75.0464 173.031 74.7563 178.943 74.7563C183.872 74.7563 183.245 79.5387 191.606 77.9031C196.394 76.9642 201.008 78.5201 206.091 79.8655C210.372 81.0006 214.396 82.2934 216.808 85.1151C218.368 86.942 222.24 96.0956 218.294 96.4862C218.674 96.9501 218.951 97.787 219.661 98.2462C218.782 101.699 214.958 99.2393 212.833 98.7961C209.97 98.2031 207.949 98.8854 205.149 100.124C200.36 102.255 193.357 102.007 189.186 105.479C185.647 108.422 185.653 114.991 184.002 118.672C184.002 118.672 179.419 130.459 169.413 137.67Z" fill="#030712"/>
<path d="M58.762 154.41C56.4844 154.179 54.3695 153.919 52.1572 153.473C48.0263 152.641 43.5125 151.829 39.4437 150.855C36.9731 150.257 28.7431 147.345 26.9551 146.524C22.762 144.592 19.9772 139.342 16.6995 139.883C14.6069 140.224 12.5685 140.941 11.267 143.05C10.2048 144.77 9.84432 147.727 9.10904 149.711C8.25574 152.012 6.78199 154.161 5.49166 156.355C3.11834 160.379 -1.15298 164.018 -2.99358 167.938C-3.36361 168.745 -3.69217 169.647 -4 170.588V185.627V211.645V215.404C-1.85317 215.771 0.392543 216.222 2.90621 216.893C21.4573 221.84 25.9838 222.259 44.1792 220.179L45.8858 219.952C47.2782 217.057 48.3532 207.193 49.256 204.14C49.9594 201.8 50.9259 199.934 51.2928 197.545C51.6389 195.275 51.2609 193.111 51.0663 191.049C50.5559 185.88 54.832 184.034 56.8736 179.596C58.7142 175.58 59.7764 171.012 61.2996 166.907C62.7606 162.968 65.0414 157.401 68.9315 155.418C68.4594 154.868 60.8052 154.614 58.762 154.41Z" fill="#030712"/>
</g>
</g>
<defs>
<clipPath id="clip0_1543_2">
<rect width="256" height="256" fill="white"/>
</clipPath>
</defs>
</svg>
