<svg width="256" height="256" viewBox="0 0 256 256" fill="none" xmlns="http://www.w3.org/2000/svg">
<g clip-path="url(#clip0_1102_21)">
<path d="M196 0H60C26.8629 0 0 26.8629 0 60V196C0 229.137 26.8629 256 60 256H196C229.137 256 256 229.137 256 196V60C256 26.8629 229.137 0 196 0Z" fill="#030712"/>
<mask id="mask0_1102_21" style="mask-type:luminance" maskUnits="userSpaceOnUse" x="53" y="38" width="150" height="180">
<path d="M202.644 38H53V218H202.644V38Z" fill="white"/>
</mask>
<g mask="url(#mask0_1102_21)">
<path d="M193.034 61.7968C176.407 37.8476 143.305 30.8307 119.509 45.9324L77.5592 72.7798C66.1185 79.9493 58.1863 91.6951 55.8981 104.966C53.9151 116.102 55.5931 127.542 60.932 137.458C57.271 142.949 54.8303 149.051 53.7625 155.458C51.3219 169.034 54.5253 183.068 62.4575 194.203C79.2371 218.153 112.186 225.169 135.983 210.068L177.932 183.373C189.373 176.203 197.305 164.458 199.593 151.186C201.576 140.051 199.898 128.61 194.559 118.695C198.22 113.203 200.661 107.102 201.729 100.695C204.322 86.9663 201.119 72.9324 193.034 61.7968Z" fill="#FF3E00"/>
<path d="M115.39 196.491C101.814 200 87.6271 194.661 79.6949 183.22C74.8135 176.508 72.983 168.119 74.3559 159.881C74.661 158.508 74.9661 157.288 75.2711 155.915L76.0338 153.475L78.1694 155C83.2033 158.661 88.6949 161.407 94.644 163.237L96.1694 163.695L96.0169 165.22C95.8644 167.356 96.4745 169.644 97.6949 171.475C100.136 174.983 104.407 176.661 108.525 175.593C109.441 175.288 110.356 174.983 111.119 174.525L152.915 147.83C155.051 146.458 156.424 144.475 156.881 142.034C157.339 139.593 156.729 137 155.356 135.017C152.915 131.508 148.644 129.983 144.525 131.051C143.61 131.356 142.695 131.661 141.932 132.119L125.915 142.339C123.322 144.017 120.424 145.237 117.373 146C103.797 149.508 89.6101 144.169 81.6779 132.729C76.9491 126.017 74.9661 117.627 76.4915 109.39C77.8644 101.458 82.7457 94.2885 89.6101 90.0173L131.559 63.3224C134.152 61.6444 137.051 60.4241 140.102 59.5088C153.678 56.0004 167.864 61.3393 175.797 72.78C180.678 79.4919 182.508 87.8817 181.136 96.119C180.83 97.4919 180.525 98.7122 180.068 100.085L179.305 102.525L177.169 101C172.136 97.3393 166.644 94.5936 160.695 92.7631L159.169 92.3054L159.322 90.78C159.475 88.6444 158.864 86.3563 157.644 84.5258C155.203 81.0173 150.932 79.4919 146.814 80.5597C145.898 80.8648 144.983 81.1698 144.22 81.6275L102.424 108.322C100.288 109.695 98.9152 111.678 98.4576 114.119C97.9999 116.559 98.6101 119.153 99.983 121.136C102.424 124.644 106.695 126.169 110.814 125.102C111.729 124.797 112.644 124.491 113.407 124.034L129.424 113.814C132.017 112.136 134.915 110.915 137.966 110C151.542 106.491 165.729 111.83 173.661 123.271C178.542 129.983 180.373 138.373 179 146.61C177.627 154.542 172.746 161.712 165.881 165.983L123.932 192.678C121.339 194.356 118.441 195.576 115.39 196.491Z" fill="white"/>
</g>
</g>
<defs>
<clipPath id="clip0_1102_21">
<rect width="256" height="256" fill="white"/>
</clipPath>
</defs>
</svg>
