<svg width="256" height="256" viewBox="0 0 256 256" fill="none" xmlns="http://www.w3.org/2000/svg">
<g clip-path="url(#clip0_1102_16)">
<path d="M196 0H60C26.8629 0 0 26.8629 0 60V196C0 229.137 26.8629 256 60 256H196C229.137 256 256 229.137 256 196V60C256 26.8629 229.137 0 196 0Z" fill="#030712"/>
<path d="M182 50H218L128 205.25L38 50H73.55H106.85L128 86L148.7 50H182Z" fill="#41B883"/>
<path d="M38 50L128 205.25L218 50H182L128 143.15L73.55 50H38Z" fill="#41B883"/>
<path d="M73.5498 50L128 143.6L182 50H148.7L128 86L106.85 50H73.5498Z" fill="white"/>
</g>
<defs>
<clipPath id="clip0_1102_16">
<rect width="256" height="256" fill="white"/>
</clipPath>
</defs>
</svg>
